# Blender v2.80 (sub 75) OBJ File: 'pizza box.blend'
# www.blender.org
mtllib pizza box.mtl
o Plane
v -0.982680 0.017320 0.982680
v 0.982680 0.017320 0.982680
v -0.986584 0.026832 -1.000000
v 0.986584 0.026832 -1.000000
v -0.978787 0.021212 0.000000
v 0.978787 0.021212 0.000000
v -1.000000 0.021212 -0.978787
v 1.000000 0.021212 -0.978787
v -0.978298 0.151038 0.980406
v 0.978298 0.151038 0.980406
v -0.970000 0.144325 -1.000000
v 0.970000 0.144325 -1.000000
v -0.970000 0.144325 0.000000
v 0.970000 0.144325 0.000000
v -1.000000 0.144325 -0.970000
v 1.000000 0.144325 -0.970000
v -0.982539 1.296002 1.872115
v 0.982539 1.296002 1.872115
v -1.000000 1.362774 1.767549
v 1.000000 1.362774 1.767549
v -0.970000 0.231679 0.893655
v 0.970000 0.231679 0.893655
v -0.970000 1.386278 1.789988
v 0.970000 1.386278 1.789988
v -1.000000 0.000000 1.000000
v 1.000000 0.000000 1.000000
v -1.000000 0.000000 -1.000000
v 1.000000 0.000000 -1.000000
v -1.000000 0.000000 0.000000
v 1.000000 0.000000 0.000000
v -1.000000 0.000000 -1.000000
v 1.000000 0.000000 -1.000000
v -1.000000 0.144325 1.000000
v 1.000000 0.144325 1.000000
v -1.000000 0.144325 -1.000000
v 1.000000 0.144325 -1.000000
v -1.000000 0.144325 0.000000
v 1.000000 0.144325 0.000000
v -1.000000 0.144325 -1.000000
v 1.000000 0.144325 -1.000000
v -1.000000 1.298923 1.896333
v 1.000000 1.298923 1.896333
v -1.000000 1.386278 1.786190
v 1.000000 1.386278 1.786190
v -1.000000 0.231679 0.893655
v 1.000000 0.231679 0.893655
v -1.000000 1.386278 1.789988
v 1.000000 1.386278 1.789988
vt 0.000000 0.500000
vt 1.000000 0.500000
vt 1.000000 1.000000
vt 0.000000 1.000000
vt 0.000000 0.000000
vt 1.000000 0.000000
vt 1.000000 1.000000
vt 0.000000 1.000000
vt 0.000000 0.000000
vt 1.000000 0.000000
vt 0.000000 1.000000
vt 0.000000 0.500000
vt 1.000000 0.500000
vt 1.000000 1.000000
vt 1.000000 1.000000
vt 0.000000 1.000000
vt 0.000000 0.000000
vt 1.000000 0.000000
vt 0.000000 0.000000
vt 1.000000 0.000000
vt 0.000000 0.000000
vt 0.000000 0.000000
vt 1.000000 0.000000
vt 1.000000 0.000000
vt 0.000000 0.500000
vt 0.000000 1.000000
vt 1.000000 1.000000
vt 1.000000 0.500000
vt 0.000000 0.000000
vt 1.000000 0.000000
vt 0.000000 1.000000
vt 1.000000 1.000000
vt 1.000000 0.000000
vt 0.000000 0.000000
vt 0.000000 0.500000
vt 0.000000 1.000000
vt 1.000000 1.000000
vt 1.000000 0.500000
vt 0.000000 1.000000
vt 1.000000 1.000000
vt 1.000000 0.000000
vt 0.000000 0.000000
vt 1.000000 0.000000
vt 0.000000 0.000000
vt 0.000000 0.000000
vt 0.000000 0.000000
vt 1.000000 0.000000
vt 1.000000 0.000000
vn 0.0000 1.0000 0.0056
vn 0.0000 1.0000 0.0040
vn 0.0000 -0.9667 -0.2561
vn 0.0000 -0.0170 -0.9999
vn 0.9945 -0.1049 -0.0042
vn -0.9945 -0.1049 -0.0042
vn 0.9987 -0.0512 0.0063
vn 0.0000 -0.0712 0.9975
vn -0.9987 -0.0512 0.0063
vn 0.0000 0.6144 -0.7890
vn 0.0000 -0.8428 -0.5382
vn 0.9962 -0.0525 0.0698
vn -0.9962 -0.0525 0.0698
vn 0.0000 -1.0000 0.0000
vn 0.0000 0.0000 1.0000
vn -1.0000 0.0000 0.0000
vn 1.0000 0.0000 0.0000
vn 0.0000 0.0000 -1.0000
vn 0.0000 -0.6132 0.7899
vn 0.0000 0.7835 0.6214
vn -0.8165 -0.4082 0.4082
vn 0.8165 -0.4082 0.4082
vn -0.1302 0.9915 -0.0039
vn 0.0000 1.0000 0.0000
vn 0.1302 0.9915 -0.0039
vn 0.0000 0.6214 -0.7835
vn 0.9256 -0.3390 -0.1681
vn -0.9256 -0.3390 -0.1681
vn 0.0000 0.6132 -0.7899
vn 0.3723 0.6629 0.6496
vn -0.1509 -0.7426 -0.6525
vn 0.1509 -0.7426 -0.6525
vn -0.3723 0.6629 0.6496
usemtl Material.001
s off
f 5/1/1 6/2/1 4/3/1 3/4/1
f 1/5/2 2/6/2 6/2/2 5/1/2
f 3/4/3 4/3/3 8/7/3 7/8/3
f 2/6/4 1/5/4 9/9/4 10/10/4
f 5/1/5 3/4/5 11/11/5 13/12/5
f 4/3/6 6/2/6 14/13/6 12/14/6
f 1/5/7 5/1/7 13/12/7 9/9/7
f 7/8/8 8/7/8 16/15/8 15/16/8
f 6/2/9 2/6/9 10/10/9 14/13/9
f 10/10/10 9/9/10 17/17/10 18/18/10
f 18/18/11 17/17/11 19/19/11 20/20/11
f 17/17/12 9/9/12 21/21/12 23/22/12
f 10/10/13 18/18/13 24/23/13 22/24/13
f 29/25/14 27/26/14 28/27/14 30/28/14
f 25/29/14 29/25/14 30/28/14 26/30/14
f 27/26/15 31/31/15 32/32/15 28/27/15
f 26/30/15 34/33/15 33/34/15 25/29/15
f 29/25/16 37/35/16 35/36/16 27/26/16
f 28/27/17 36/37/17 38/38/17 30/28/17
f 25/29/16 33/34/16 37/35/16 29/25/16
f 31/31/18 39/39/18 40/40/18 32/32/18
f 30/28/17 38/38/17 34/33/17 26/30/17
f 34/33/19 42/41/19 41/42/19 33/34/19
f 42/41/20 44/43/20 43/44/20 41/42/20
f 41/42/16 47/45/16 45/46/16 33/34/16
f 34/33/17 46/47/17 48/48/17 42/41/17
f 8/7/21 4/3/21 28/27/21 32/32/21
f 3/4/22 7/8/22 31/31/22 27/26/22
f 9/9/23 13/12/23 37/35/23 33/34/23
f 12/14/24 14/13/24 38/38/24 36/37/24
f 13/12/24 11/11/24 35/36/24 37/35/24
f 14/13/25 10/10/25 34/33/25 38/38/25
f 15/16/24 16/15/24 40/40/24 39/39/24
f 11/11/18 3/4/18 27/26/18 35/36/18
f 4/3/18 12/14/18 36/37/18 28/27/18
f 7/8/16 15/16/16 39/39/16 31/31/16
f 16/15/17 8/7/17 32/32/17 40/40/17
f 20/20/26 19/19/26 43/44/26 44/43/26
f 18/18/27 20/20/27 44/43/27 42/41/27
f 19/19/28 17/17/28 41/42/28 43/44/28
f 22/24/29 24/23/29 48/48/29 46/47/29
f 23/22/29 21/21/29 45/46/29 47/45/29
f 17/17/30 23/22/30 47/45/30 41/42/30
f 21/21/31 9/9/31 33/34/31 45/46/31
f 10/10/32 22/24/32 46/47/32 34/33/32
f 24/23/33 18/18/33 42/41/33 48/48/33
o Cylinder
v 0.707107 0.020722 0.393310
v 0.555570 0.020722 0.517673
v 0.382683 0.020722 0.610083
v 0.195090 0.020722 0.666989
v -0.000000 0.020722 0.686203
v -0.000000 0.020722 -0.313308
v 0.707107 0.074527 0.393310
v 0.555570 0.074527 0.517673
v 0.382683 0.074527 0.610083
v 0.195090 0.074527 0.666989
v -0.000000 0.074527 0.686203
v -0.000000 0.074527 -0.313308
v -0.000000 0.074527 0.602374
v 0.631742 0.074527 0.317997
v 0.185150 0.074527 0.578040
v 0.349443 0.074527 0.515502
v 0.503137 0.074527 0.428586
v 0.707107 0.086187 0.393310
v 0.555570 0.086187 0.517673
v 0.382683 0.086187 0.610083
v 0.195090 0.086187 0.666989
v -0.000000 0.086187 0.686203
v -0.000000 0.086187 0.602374
v 0.631742 0.086187 0.317997
v 0.185150 0.086187 0.578040
v 0.349443 0.086187 0.515502
v 0.503137 0.086187 0.428586
v -0.352249 -0.000000 0.116958
v -0.399947 -0.000000 0.162536
v -0.368149 -0.000000 0.216594
v -0.322570 -0.000000 0.215534
v -0.301371 -0.000000 0.165716
v 0.604348 0.074527 0.290622
v -0.000000 0.074527 0.564169
v 0.173083 0.074527 0.537458
v 0.337165 0.074527 0.482764
v 0.492343 0.074527 0.398815
vt 0.833866 0.050968
vt 0.833866 0.050968
vt 0.870753 0.071828
vt 0.870753 0.071828
vt 0.000000 0.000000
vt 0.000000 0.000000
vt 0.000000 0.000000
vt 0.000000 0.000000
vt 0.000000 0.000000
vt 0.000000 0.000000
vt 0.000000 0.000000
vt 0.000000 0.000000
vt 0.000000 0.000000
vt 0.000000 0.000000
vt 0.593750 0.500000
vt 0.562500 0.500000
vt 0.531250 0.500000
vt 0.901618 0.098369
vt 0.901618 0.098369
vt 0.750000 0.030119
vt 0.750000 0.030119
vt 0.794436 0.035959
vt 0.794436 0.035959
vt 0.000000 0.000000
vt 0.000000 0.000000
vt 0.895043 0.104940
vt 0.750000 0.249883
vt 0.750000 0.039288
vt 0.791540 0.045699
vt 0.830919 0.058826
vt 0.868162 0.078973
vt 0.625000 0.500000
vt 0.625000 0.500000
vt 0.593750 0.500000
vt 0.531250 0.500000
vt 0.500000 0.500000
vt 0.500000 0.500000
vt 0.562500 0.500000
vt 0.750000 0.010000
vt 0.796822 0.014612
vt 0.841844 0.028269
vt 0.883337 0.050447
vt 0.919706 0.080294
vt 0.531250 0.500000
vt 0.500000 0.500000
vt 0.625000 0.500000
vt 0.593750 0.500000
vt 0.000000 0.000000
vt 0.000000 0.000000
vt 0.562500 0.500000
vn -0.4923 0.0000 -0.8705
vn 0.7069 -0.0000 -0.7074
vn -1.0000 -0.0000 -0.0000
vn 0.0000 -1.0000 -0.0000
vn -0.6520 0.0000 -0.7582
vn -0.1303 0.0000 -0.9915
vn -0.3557 0.0000 -0.9346
vn 0.0000 1.0000 0.0000
vn 0.6344 0.0000 0.7730
vn 0.0980 0.0000 0.9952
vn 0.4714 0.0000 0.8819
vn 0.2903 0.0000 0.9569
usemtl Material.008
s off
f 64/49/34 74/50/34 75/51/34 65/52/34
f 54/53/35 60/54/35 81/55/35 62/56/35 55/57/35 49/58/35
f 53/59/36 59/60/36 61/61/36 82/62/36 60/54/36 54/53/36
f 49/58/37 50/63/37 51/64/37 52/65/37 53/59/37 54/53/37
f 65/52/38 75/51/38 72/66/38 62/67/38
f 61/68/39 71/69/39 73/70/39 63/71/39
f 63/71/40 73/70/40 74/50/40 64/49/40
f 62/56/35 72/72/35 66/73/35 55/57/35
f 81/74/41 60/75/41 82/76/41 83/77/41 84/78/41 85/79/41
usemtl Material.009
f 49/80/42 55/81/42 56/82/42 50/63/42
f 52/65/43 58/83/43 59/84/43 53/85/43
f 50/63/44 56/82/44 57/86/44 51/64/44
f 51/64/45 57/86/45 58/83/45 52/65/45
f 70/87/41 69/88/41 68/89/41 67/90/41 66/91/41 72/66/41 75/51/41 74/50/41 73/70/41 71/69/41
f 62/67/41 81/74/41 85/79/41 84/78/41 83/77/41 82/76/41 61/68/41 63/71/41 64/49/41 65/52/41
f 58/83/43 69/92/43 70/93/43 59/84/43
f 55/81/42 66/94/42 67/95/42 56/82/42
f 59/60/36 70/96/36 71/97/36 61/61/36
f 56/82/44 67/95/44 68/98/44 57/86/44
f 57/86/45 68/98/45 69/92/45 58/83/45
o Plane.001
v 0.132890 0.074731 -0.123792
v 0.036960 0.074731 -0.128032
v 0.116991 0.074731 -0.039521
v 0.039080 0.074731 -0.049061
v 0.080155 0.074731 -0.143931
v 0.080155 0.074731 -0.027862
v 0.138190 0.074731 -0.085896
v 0.022121 0.074731 -0.085896
v 0.080155 0.074731 -0.085896
v 0.138190 0.082151 -0.085896
v 0.132890 0.082151 -0.123792
v 0.080155 0.082151 -0.143931
v 0.036960 0.082151 -0.128032
v 0.022121 0.082151 -0.085896
v 0.039080 0.082151 -0.049061
v 0.080155 0.082151 -0.027862
v 0.116991 0.082151 -0.039521
v 0.080155 0.082151 -0.085896
vt 0.500000 0.500000
vt 1.000000 0.500000
vt 1.000000 1.000000
vt 0.500000 1.000000
vt 0.000000 0.500000
vt 0.000000 1.000000
vt 0.000000 0.000000
vt 0.500000 0.000000
vt 1.000000 0.000000
vt 0.500000 0.500000
vt 0.500000 1.000000
vt 1.000000 1.000000
vt 1.000000 0.500000
vt 0.000000 0.500000
vt 0.000000 1.000000
vt 0.000000 0.000000
vt 0.500000 0.000000
vt 1.000000 0.000000
vn 0.0000 1.0000 -0.0000
vn 0.0000 -1.0000 0.0000
vn -0.3568 0.0000 0.9342
vn 0.9083 0.0000 -0.4182
vn -0.9904 0.0000 0.1385
vn -0.9095 0.0000 -0.4157
vn 0.4586 0.0000 -0.8886
vn -0.3018 0.0000 -0.9534
vn 0.3454 0.0000 0.9384
vn 0.9432 0.0000 0.3322
usemtl Material.006
s off
f 94/99/46 93/100/46 89/101/46 91/102/46
f 92/103/46 94/99/46 91/102/46 88/104/46
f 86/105/46 90/106/46 94/99/46 92/103/46
f 90/106/46 87/107/46 93/100/46 94/99/46
f 103/108/47 101/109/47 100/110/47 99/111/47
f 95/112/47 102/113/47 101/109/47 103/108/47
f 96/114/47 95/112/47 103/108/47 97/115/47
f 97/115/47 103/108/47 99/111/47 98/116/47
f 86/105/48 96/114/48 97/115/48 90/106/48
f 93/100/49 99/111/49 100/110/49 89/101/49
f 92/103/50 95/112/50 96/114/50 86/105/50
f 88/104/51 102/113/51 95/112/51 92/103/51
f 89/101/52 100/110/52 101/109/52 91/102/52
f 91/102/53 101/109/53 102/113/53 88/104/53
f 90/106/54 97/115/54 98/116/54 87/107/54
f 87/107/55 98/116/55 99/111/55 93/100/55
o Plane.002
v 0.132890 0.074731 0.104793
v 0.036960 0.074731 0.100553
v 0.116991 0.074731 0.189064
v 0.039080 0.074731 0.179524
v 0.080155 0.074731 0.084654
v 0.080155 0.074731 0.200723
v 0.138190 0.074731 0.142689
v 0.022121 0.074731 0.142689
v 0.080155 0.074731 0.142689
v 0.138190 0.082151 0.142689
v 0.132890 0.082151 0.104793
v 0.080155 0.082151 0.084654
v 0.036960 0.082151 0.100553
v 0.022121 0.082151 0.142689
v 0.039080 0.082151 0.179524
v 0.080155 0.082151 0.200723
v 0.116991 0.082151 0.189064
v 0.080155 0.082151 0.142689
vt 0.500000 0.500000
vt 1.000000 0.500000
vt 1.000000 1.000000
vt 0.500000 1.000000
vt 0.000000 0.500000
vt 0.000000 1.000000
vt 0.000000 0.000000
vt 0.500000 0.000000
vt 1.000000 0.000000
vt 0.500000 0.500000
vt 0.500000 1.000000
vt 1.000000 1.000000
vt 1.000000 0.500000
vt 0.000000 0.500000
vt 0.000000 1.000000
vt 0.000000 0.000000
vt 0.500000 0.000000
vt 1.000000 0.000000
vn 0.0000 1.0000 -0.0000
vn 0.0000 -1.0000 0.0000
vn -0.3568 0.0000 0.9342
vn 0.9083 0.0000 -0.4182
vn -0.9904 0.0000 0.1385
vn -0.9095 0.0000 -0.4157
vn 0.4586 0.0000 -0.8886
vn -0.3018 0.0000 -0.9534
vn 0.3454 0.0000 0.9384
vn 0.9432 0.0000 0.3322
usemtl Material.005
s off
f 112/117/56 111/118/56 107/119/56 109/120/56
f 110/121/56 112/117/56 109/120/56 106/122/56
f 104/123/56 108/124/56 112/117/56 110/121/56
f 108/124/56 105/125/56 111/118/56 112/117/56
f 121/126/57 119/127/57 118/128/57 117/129/57
f 113/130/57 120/131/57 119/127/57 121/126/57
f 114/132/57 113/130/57 121/126/57 115/133/57
f 115/133/57 121/126/57 117/129/57 116/134/57
f 104/123/58 114/132/58 115/133/58 108/124/58
f 111/118/59 117/129/59 118/128/59 107/119/59
f 110/121/60 113/130/60 114/132/60 104/123/60
f 106/122/61 120/131/61 113/130/61 110/121/61
f 107/119/62 118/128/62 119/127/62 109/120/62
f 109/120/63 119/127/63 120/131/63 106/122/63
f 108/124/64 115/133/64 116/134/64 105/125/64
f 105/125/65 116/134/65 117/129/65 111/118/65
o Plane.003
v 0.288943 0.074731 0.245461
v 0.193013 0.074731 0.241221
v 0.273044 0.074731 0.329731
v 0.195133 0.074731 0.320192
v 0.236208 0.074731 0.225322
v 0.236208 0.074731 0.341391
v 0.294243 0.074731 0.283356
v 0.178174 0.074731 0.283356
v 0.236208 0.074731 0.283356
v 0.294243 0.082151 0.283356
v 0.288943 0.082151 0.245461
v 0.236208 0.082151 0.225322
v 0.193013 0.082151 0.241221
v 0.178174 0.082151 0.283356
v 0.195133 0.082151 0.320192
v 0.236208 0.082151 0.341391
v 0.273044 0.082151 0.329731
v 0.236208 0.082151 0.283356
vt 0.500000 0.500000
vt 1.000000 0.500000
vt 1.000000 1.000000
vt 0.500000 1.000000
vt 0.000000 0.500000
vt 0.000000 1.000000
vt 0.000000 0.000000
vt 0.500000 0.000000
vt 1.000000 0.000000
vt 0.500000 0.500000
vt 0.500000 1.000000
vt 1.000000 1.000000
vt 1.000000 0.500000
vt 0.000000 0.500000
vt 0.000000 1.000000
vt 0.000000 0.000000
vt 0.500000 0.000000
vt 1.000000 0.000000
vn 0.0000 1.0000 -0.0000
vn 0.0000 -1.0000 0.0000
vn -0.3568 0.0000 0.9342
vn 0.9083 0.0000 -0.4182
vn -0.9904 0.0000 0.1385
vn -0.9095 0.0000 -0.4157
vn 0.4586 0.0000 -0.8886
vn -0.3018 0.0000 -0.9534
vn 0.3454 0.0000 0.9384
vn 0.9432 0.0000 0.3322
usemtl Material.003
s off
f 130/135/66 129/136/66 125/137/66 127/138/66
f 128/139/66 130/135/66 127/138/66 124/140/66
f 122/141/66 126/142/66 130/135/66 128/139/66
f 126/142/66 123/143/66 129/136/66 130/135/66
f 139/144/67 137/145/67 136/146/67 135/147/67
f 131/148/67 138/149/67 137/145/67 139/144/67
f 132/150/67 131/148/67 139/144/67 133/151/67
f 133/151/67 139/144/67 135/147/67 134/152/67
f 122/141/68 132/150/68 133/151/68 126/142/68
f 129/136/69 135/147/69 136/146/69 125/137/69
f 128/139/70 131/148/70 132/150/70 122/141/70
f 124/140/71 138/149/71 131/148/71 128/139/71
f 125/137/72 136/146/72 137/145/72 127/138/72
f 127/138/73 137/145/73 138/149/73 124/140/73
f 126/142/74 133/151/74 134/152/74 123/143/74
f 123/143/75 134/152/75 135/147/75 129/136/75
o Plane.004
v 0.132890 0.074731 0.399316
v 0.036960 0.074731 0.395076
v 0.116991 0.074731 0.483587
v 0.039080 0.074731 0.474047
v 0.080155 0.074731 0.379177
v 0.080155 0.074731 0.495246
v 0.138190 0.074731 0.437212
v 0.022121 0.074731 0.437212
v 0.080155 0.074731 0.437212
v 0.138190 0.082151 0.437212
v 0.132890 0.082151 0.399316
v 0.080155 0.082151 0.379177
v 0.036960 0.082151 0.395076
v 0.022121 0.082151 0.437212
v 0.039080 0.082151 0.474047
v 0.080155 0.082151 0.495246
v 0.116991 0.082151 0.483587
v 0.080155 0.082151 0.437212
vt 0.500000 0.500000
vt 1.000000 0.500000
vt 1.000000 1.000000
vt 0.500000 1.000000
vt 0.000000 0.500000
vt 0.000000 1.000000
vt 0.000000 0.000000
vt 0.500000 0.000000
vt 1.000000 0.000000
vt 0.500000 0.500000
vt 0.500000 1.000000
vt 1.000000 1.000000
vt 1.000000 0.500000
vt 0.000000 0.500000
vt 0.000000 1.000000
vt 0.000000 0.000000
vt 0.500000 0.000000
vt 1.000000 0.000000
vn 0.0000 1.0000 -0.0000
vn 0.0000 -1.0000 0.0000
vn -0.3568 0.0000 0.9342
vn 0.9083 0.0000 -0.4182
vn -0.9904 0.0000 0.1385
vn -0.9095 0.0000 -0.4157
vn 0.4586 0.0000 -0.8886
vn -0.3018 0.0000 -0.9534
vn 0.3454 0.0000 0.9384
vn 0.9432 0.0000 0.3322
usemtl Material.004
s off
f 148/153/76 147/154/76 143/155/76 145/156/76
f 146/157/76 148/153/76 145/156/76 142/158/76
f 140/159/76 144/160/76 148/153/76 146/157/76
f 144/160/76 141/161/76 147/154/76 148/153/76
f 157/162/77 155/163/77 154/164/77 153/165/77
f 149/166/77 156/167/77 155/163/77 157/162/77
f 150/168/77 149/166/77 157/162/77 151/169/77
f 151/169/77 157/162/77 153/165/77 152/170/77
f 140/159/78 150/168/78 151/169/78 144/160/78
f 147/154/79 153/165/79 154/164/79 143/155/79
f 146/157/80 149/166/80 150/168/80 140/159/80
f 142/158/81 156/167/81 149/166/81 146/157/81
f 143/155/82 154/164/82 155/163/82 145/156/82
f 145/156/83 155/163/83 156/167/83 142/158/83
f 144/160/84 151/169/84 152/170/84 141/161/84
f 141/161/85 152/170/85 153/165/85 147/154/85
o Plane.005
v 0.444996 0.074731 0.333378
v 0.349066 0.074731 0.329138
v 0.429097 0.074731 0.417649
v 0.351186 0.074731 0.408109
v 0.392261 0.074731 0.313239
v 0.392261 0.074731 0.429308
v 0.450296 0.074731 0.371274
v 0.334227 0.074731 0.371274
v 0.392261 0.074731 0.371274
v 0.450296 0.082151 0.371274
v 0.444996 0.082151 0.333378
v 0.392261 0.082151 0.313239
v 0.349066 0.082151 0.329138
v 0.334227 0.082151 0.371274
v 0.351186 0.082151 0.408109
v 0.392261 0.082151 0.429308
v 0.429097 0.082151 0.417649
v 0.392261 0.082151 0.371274
vt 0.500000 0.500000
vt 1.000000 0.500000
vt 1.000000 1.000000
vt 0.500000 1.000000
vt 0.000000 0.500000
vt 0.000000 1.000000
vt 0.000000 0.000000
vt 0.500000 0.000000
vt 1.000000 0.000000
vt 0.500000 0.500000
vt 0.500000 1.000000
vt 1.000000 1.000000
vt 1.000000 0.500000
vt 0.000000 0.500000
vt 0.000000 1.000000
vt 0.000000 0.000000
vt 0.500000 0.000000
vt 1.000000 0.000000
vn 0.0000 1.0000 -0.0000
vn 0.0000 -1.0000 0.0000
vn -0.3568 0.0000 0.9342
vn 0.9083 0.0000 -0.4182
vn -0.9904 0.0000 0.1385
vn -0.9095 0.0000 -0.4157
vn 0.4586 0.0000 -0.8886
vn -0.3018 0.0000 -0.9534
vn 0.3454 0.0000 0.9384
vn 0.9432 0.0000 0.3322
usemtl Material.002
s off
f 166/171/86 165/172/86 161/173/86 163/174/86
f 164/175/86 166/171/86 163/174/86 160/176/86
f 158/177/86 162/178/86 166/171/86 164/175/86
f 162/178/86 159/179/86 165/172/86 166/171/86
f 175/180/87 173/181/87 172/182/87 171/183/87
f 167/184/87 174/185/87 173/181/87 175/180/87
f 168/186/87 167/184/87 175/180/87 169/187/87
f 169/187/87 175/180/87 171/183/87 170/188/87
f 158/177/88 168/186/88 169/187/88 162/178/88
f 165/172/89 171/183/89 172/182/89 161/173/89
f 164/175/90 167/184/90 168/186/90 158/177/90
f 160/176/91 174/185/91 167/184/91 164/175/91
f 161/173/92 172/182/92 173/181/92 163/174/92
f 163/174/93 173/181/93 174/185/93 160/176/93
f 162/178/94 169/187/94 170/188/94 159/179/94
f 159/179/95 170/188/95 171/183/95 165/172/95
o Plane.006
v 0.293339 0.074731 0.025668
v 0.197409 0.074731 0.021428
v 0.277440 0.074731 0.109938
v 0.199529 0.074731 0.100399
v 0.240604 0.074731 0.005528
v 0.240604 0.074731 0.121598
v 0.298639 0.074731 0.063563
v 0.182570 0.074731 0.063563
v 0.240604 0.074731 0.063563
v 0.298639 0.082151 0.063563
v 0.293339 0.082151 0.025668
v 0.240604 0.082151 0.005528
v 0.197409 0.082151 0.021428
v 0.182570 0.082151 0.063563
v 0.199529 0.082151 0.100399
v 0.240604 0.082151 0.121598
v 0.277440 0.082151 0.109938
v 0.240604 0.082151 0.063563
vt 0.500000 0.500000
vt 1.000000 0.500000
vt 1.000000 1.000000
vt 0.500000 1.000000
vt 0.000000 0.500000
vt 0.000000 1.000000
vt 0.000000 0.000000
vt 0.500000 0.000000
vt 1.000000 0.000000
vt 0.500000 0.500000
vt 0.500000 1.000000
vt 1.000000 1.000000
vt 1.000000 0.500000
vt 0.000000 0.500000
vt 0.000000 1.000000
vt 0.000000 0.000000
vt 0.500000 0.000000
vt 1.000000 0.000000
vn 0.0000 1.0000 -0.0000
vn 0.0000 -1.0000 0.0000
vn -0.3568 0.0000 0.9342
vn 0.9083 0.0000 -0.4182
vn -0.9904 0.0000 0.1385
vn -0.9095 0.0000 -0.4157
vn 0.4586 0.0000 -0.8886
vn -0.3018 0.0000 -0.9534
vn 0.3454 0.0000 0.9384
vn 0.9432 0.0000 0.3322
usemtl Material.007
s off
f 184/189/96 183/190/96 179/191/96 181/192/96
f 182/193/96 184/189/96 181/192/96 178/194/96
f 176/195/96 180/196/96 184/189/96 182/193/96
f 180/196/96 177/197/96 183/190/96 184/189/96
f 193/198/97 191/199/97 190/200/97 189/201/97
f 185/202/97 192/203/97 191/199/97 193/198/97
f 186/204/97 185/202/97 193/198/97 187/205/97
f 187/205/97 193/198/97 189/201/97 188/206/97
f 176/195/98 186/204/98 187/205/98 180/196/98
f 183/190/99 189/201/99 190/200/99 179/191/99
f 182/193/100 185/202/100 186/204/100 176/195/100
f 178/194/101 192/203/101 185/202/101 182/193/101
f 179/191/102 190/200/102 191/199/102 181/192/102
f 181/192/103 191/199/103 192/203/103 178/194/103
f 180/196/104 187/205/104 188/206/104 177/197/104
f 177/197/105 188/206/105 189/201/105 183/190/105
